<?xml version="1.0" encoding="utf-8"?>
<!-- Generator: Adobe Illustrator 24.0.2, SVG Export Plug-In . SVG Version: 6.00 Build 0)  -->
<svg version="1.1" id="b2fd6220-1241-4f98-b414-655c60f963c9"
	 xmlns="http://www.w3.org/2000/svg" xmlns:xlink="http://www.w3.org/1999/xlink" x="0px" y="0px" viewBox="0 0 64 64"
	 style="enable-background:new 0 0 64 64;" xml:space="preserve">
<title>sharebuttons</title>
<g>
	<path d="M50.4,24.1c-2.2,11.6-14.4,21.4-18,23.7c-3.7,2.2-7-0.9-8.2-3.3c-1.4-2.7-5.5-17.4-6.6-18.6c-1.1-1.2-4.4,1.2-4.4,1.2
		l-1.6-2c0,0,6.6-7.5,11.7-8.4c5.4-1,5.3,7.8,6.6,12.6c1.2,4.7,2.1,7.4,3.2,7.4c1.1,0,3.2-2.6,5.4-6.6c2.3-4-0.1-7.6-4.6-5.1
		C35.7,14.9,52.6,12.5,50.4,24.1z"/>
</g>
</svg>
