<?xml version="1.0" encoding="UTF-8" standalone="no"?>
<!-- Generator: Adobe Illustrator 24.0.2, SVG Export Plug-In . SVG Version: 6.00 Build 0)  -->

<svg
   xmlns:dc="http://purl.org/dc/elements/1.1/"
   xmlns:cc="http://creativecommons.org/ns#"
   xmlns:rdf="http://www.w3.org/1999/02/22-rdf-syntax-ns#"
   xmlns:svg="http://www.w3.org/2000/svg"
   xmlns="http://www.w3.org/2000/svg"
   xmlns:sodipodi="http://sodipodi.sourceforge.net/DTD/sodipodi-0.dtd"
   xmlns:inkscape="http://www.inkscape.org/namespaces/inkscape"
   version="1.1"
   id="Layer_1"
   x="0px"
   y="0px"
   viewBox="0 0 55 72.999997"
   xml:space="preserve"
   sodipodi:docname="SpotMarker.svg"
   width="55"
   height="73"
   inkscape:version="0.92.5 (2060ec1f9f, 2020-04-08)"><metadata
   id="metadata88"><rdf:RDF><cc:Work
       rdf:about=""><dc:format>image/svg+xml</dc:format><dc:type
         rdf:resource="http://purl.org/dc/dcmitype/StillImage" /><dc:title>PhoneHeadphones_02</dc:title></cc:Work></rdf:RDF></metadata><defs
   id="defs86" /><sodipodi:namedview
   pagecolor="#ffffff"
   bordercolor="#666666"
   borderopacity="1"
   objecttolerance="10"
   gridtolerance="10"
   guidetolerance="10"
   inkscape:pageopacity="0"
   inkscape:pageshadow="2"
   inkscape:window-width="1920"
   inkscape:window-height="997"
   id="namedview84"
   showgrid="false"
   showguides="false"
   inkscape:zoom="7.5589862"
   inkscape:cx="40.593139"
   inkscape:cy="30.779413"
   inkscape:window-x="0"
   inkscape:window-y="28"
   inkscape:window-maximized="1"
   inkscape:current-layer="Layer_1" />
<style
   type="text/css"
   id="style69">
	.st0{fill:#FE00AB;}
	.st1{fill:#FE7AD3;}
	.st2{fill:#FFFFFF;}
	.st3{opacity:0.3;}
</style>
<title
   id="title71">PhoneHeadphones_02</title>
<path
   class="st0"
   d="m 25.239334,66.497234 c -0.9,-0.9 -21.9999987,-22.699998 -21.9999987,-39.099998 0,-13.3 10.7999987,-24.0999997 24.0999987,-24.0999997 13.3,0 24.1,10.7999997 24.1,24.0999997 0,16.5 -21.1,38.199998 -22,39.099998 l -2.2,2.2 z"
   id="path73"
   inkscape:connector-curvature="0"
   style="fill:#fe00ab" />
<path
   class="st1"
   d="m 27.439334,6.4972364 c 11.5,-0.1 21,9.1999996 21.1,20.6999996 0,0.1 0,0.1 0,0.2 0,15.4 -21.1,36.999998 -21.1,36.999998 0,0 -21.0999987,-21.599998 -21.0999987,-36.999998 0,-11.5 9.3999987,-20.8999996 20.8999987,-20.8999996 0.1,0 0.1,0 0.2,0 m 0,-6 c -14.9,-0.1 -26.99999875,11.9999996 -27.09999875,26.8999996 0,17.4 20.49999875,38.799998 22.79999875,41.199998 l 4.3,4.4 4.3,-4.4 c 2.3,-2.4 22.8,-23.799998 22.8,-41.199998 -0.1,-14.9 -12.2,-26.9999996 -27.1,-26.8999996 z"
   id="path75"
   inkscape:connector-curvature="0"
   style="fill:#fe7ad3" />
<path
   class="st2"
   d="m 39.239334,35.397236 v 0 -13 0 -6.6 l -18.2,3.7 v 0 15.9 c -0.9,-0.2 -1.9,-0.2 -2.8,0.1 -2.6,0.7 -4.3,2.8 -3.8,4.8 0.5,2 3.1,3 5.7,2.3 2.3,-0.6 3.8,-2.3 3.9,-4.1 v 0 -12.9 l 12.4,-2.5 v 9.2 c -0.9,-0.2 -1.9,-0.2 -2.8,0.1 -2.6,0.7 -4.3,2.8 -3.8,4.8 0.5,2 3.1,3 5.7,2.3 2.1,-0.6 3.7,-2.3 3.7,-4.1 z"
   id="path77"
   inkscape:connector-curvature="0"
   style="fill:#ffffff" />
<g
   class="st3"
   id="g81"
   transform="translate(-14.360666,-1.8027636)"
   style="opacity:0.3">
	<path
   d="m 53.6,17.6 v 6.6 0 13 0 c 0,1.7 -1.6,3.5 -3.9,4.1 -0.5,0.1 -1.1,0.2 -1.6,0.2 -2,0 -3.6,-1 -4,-2.5 -0.5,-2 1.2,-4.1 3.8,-4.8 0.5,-0.1 1.1,-0.2 1.6,-0.2 0.4,0 0.8,0 1.2,0.1 v -9.3 l -12.4,2.5 v 13 0 c 0,1.7 -1.6,3.5 -3.9,4.1 -0.5,0.1 -1.1,0.2 -1.6,0.2 -2,0 -3.6,-1 -4,-2.5 -0.5,-2 1.2,-4.1 3.8,-4.8 0.5,-0.1 1.1,-0.2 1.6,-0.2 0.4,0 0.8,0 1.2,0.1 v -15.9 0 l 18.2,-3.7 m 1.5,-1.8 -1.8,0.4 -18,3.7 h -1.4 v 1.5 14.3 c -0.6,0 -1.2,0.1 -1.7,0.3 -1.5,0.4 -2.9,1.2 -3.9,2.5 -1,1.2 -1.4,2.7 -1,4.2 0.6,2.2 2.8,3.6 5.5,3.6 0.7,0 1.3,-0.1 2,-0.3 2.9,-0.8 5,-3 5,-5.5 V 28.6 l 9.3,-1.9 v 5.8 c -0.6,0 -1.2,0.1 -1.7,0.3 -1.5,0.4 -2.9,1.2 -3.8,2.5 -1,1.2 -1.4,2.7 -1,4.2 0.6,2.2 2.8,3.6 5.5,3.6 0.7,0 1.3,-0.1 2,-0.3 2.9,-0.8 4.9,-3 5,-5.5 v 0 z"
   id="path79"
   inkscape:connector-curvature="0" />
</g>
</svg>