<?xml version="1.0" encoding="utf-8"?>
<!-- Generator: Adobe Illustrator 24.0.2, SVG Export Plug-In . SVG Version: 6.00 Build 0)  -->
<svg version="1.1" id="Layer_1" xmlns="http://www.w3.org/2000/svg" xmlns:xlink="http://www.w3.org/1999/xlink" x="0px" y="0px"
	 viewBox="0 0 500 500" style="enable-background:new 0 0 500 500;" xml:space="preserve">
<g>
	<defs>
		<rect id="SVGID_1_" width="500" height="500"/>
	</defs>
	<clipPath id="SVGID_2_">
		<use xlink:href="#SVGID_1_"  style="overflow:visible;"/>
	</clipPath>
</g>
<path d="M463.6,101.9c-5.7-14.7-13.4-27.1-25.8-39.6c-12.4-12.4-24.9-20-39.6-25.8c-14.2-5.5-30.5-9.2-54.3-10.3
	c-23.8-1.1-31.5-1.1-92.2-1.1c-60.7,0-68.4-0.2-92.2,1.8h0c-23.8,0-40.1,4.4-54.3,9.9c-14.7,5.7-27.2,13-39.6,25.4
	c-12.4,12.4-20.1,24.9-25.8,39.6c-5.5,14.2-9.3,30.5-10.4,54.3C28.3,180,28,187.6,28,248.4c0,60.7,0.3,68.4,1.4,92.2
	c1.1,23.8,4.9,40.1,10.4,54.3c5.7,14.7,13.4,27.2,25.8,39.6c12.4,12.4,24.9,20.1,39.6,25.8c14.2,5.5,30.5,9.3,54.3,10.4
	c23.9,1.1,31.5,1.4,92.2,1.4c60.7,0,68.4-0.3,92.2-1.4c23.8-1.1,40.1-4.9,54.3-10.4c14.7-5.7,27.2-13.4,39.6-25.8
	c12.4-12.4,20.1-24.9,25.8-39.6c5.5-14.2,9.3-30.5,10.4-54.3c1.1-23.9,1.3-31.5,1.3-92.2c0-60.7-0.3-68.4-1.3-92.2
	C472.9,132.4,469.1,116.1,463.6,101.9 M433.7,338.8c-1,21.8-4.6,33.7-7.7,41.5c-4.1,10.4-8.9,17.9-16.7,25.7
	c-7.8,7.8-15.3,12.7-25.7,16.7c-7.9,3.1-19.7,6.7-41.5,7.7c-23.6,1.1-30.4,1.3-90.1,1.3c-59.7,0-67-0.2-90-1.3v0
	c-22-1-34-4.6-41.9-7.7c-10.4-4.1-18.1-8.9-25.9-16.7c-7.8-7.8-12.7-15.3-16.8-25.7c-3.1-7.9-6.7-19.7-7.7-41.5
	c-1.1-23.6-1.3-30.7-1.3-90.4c0-59.7,0.2-66.8,1.3-90.4c1-21.8,4.6-33.6,7.7-41.5c4.1-10.4,8.9-17.9,16.7-25.7
	c7.8-7.8,15.3-12.7,25.7-16.7c7.9-3.1,19.7-6.7,41.5-7.7c23.6-1.1,30.7-1.3,90.4-1.3c59.7,0,66.8,0.2,90.4,1.3
	c21.8,1,33.6,4.7,41.5,7.7c10.4,4,17.9,8.9,25.7,16.7c7.8,7.8,12.7,15.3,16.7,25.7c3.1,7.9,6.7,19.7,7.7,41.5
	c1.1,23.6,1.3,30.7,1.3,90.4C435,308.1,434.8,315.2,433.7,338.8"/>
<path d="M251.7,133.3c-63.4,0-114.8,51.7-114.8,114.7h0c0,64,51.4,115,114.8,115s114.8-51.4,114.8-114.8S315.1,133.3,251.7,133.3
	 M251.7,322.9c-41.2,0-74.5-33.4-74.5-74.6c0-41.2,33.4-74.6,74.5-74.6s74.6,33.4,74.6,74.6C326.2,289.5,292.8,322.9,251.7,322.9"/>
<path d="M371.1,102L371.1,102c-14.8,0-26.8,12.1-26.8,26.9c0,14.8,12,26.9,26.8,26.9c14.8,0,26.8-12,26.8-26.9
	C397.9,114.1,385.9,102,371.1,102"/>
</svg>
