<?xml version="1.0" encoding="utf-8"?>
<!-- Generator: Adobe Illustrator 24.0.2, SVG Export Plug-In . SVG Version: 6.00 Build 0)  -->
<svg version="1.1" id="Layer_1" xmlns="http://www.w3.org/2000/svg" xmlns:xlink="http://www.w3.org/1999/xlink" x="0px" y="0px"
	 viewBox="0 0 83.5 74.8" style="enable-background:new 0 0 83.5 74.8;" xml:space="preserve">
<style type="text/css">
	.st0{fill:#FFFFFF;}
	.st1{fill:#1D1D1B;}
</style>
<title>PhoneHeadphones_02</title>
<path class="st0" d="M39.6,68.3c-0.9-0.9-22-22.7-22-39.1c0-13.3,10.8-24.1,24.1-24.1s24.1,10.8,24.1,24.1c0,16.5-21.1,38.2-22,39.1
	l-2.2,2.2L39.6,68.3z"/>
<path class="st1" d="M41.8,8.3c11.5-0.1,21,9.2,21.1,20.7c0,0.1,0,0.1,0,0.2c0,15.4-21.1,37-21.1,37s-21.1-21.6-21.1-37
	c0-11.5,9.4-20.9,20.9-20.9C41.7,8.3,41.7,8.3,41.8,8.3 M41.8,2.3c-14.9-0.1-27,12-27.1,26.9c0,17.4,20.5,38.8,22.8,41.2l4.3,4.4
	l4.3-4.4c2.3-2.4,22.8-23.8,22.8-41.2C68.8,14.3,56.7,2.2,41.8,2.3z"/>
<circle class="st1" cx="41.7" cy="28.9" r="12"/>
<circle class="st1" cx="41.7" cy="28.9" r="12.7"/>
</svg>
