<?xml version="1.0" encoding="utf-8"?>
<!-- Generator: Adobe Illustrator 24.0.2, SVG Export Plug-In . SVG Version: 6.00 Build 0)  -->
<svg version="1.1" id="b2fd6220-1241-4f98-b414-655c60f963c9"
	 xmlns="http://www.w3.org/2000/svg" xmlns:xlink="http://www.w3.org/1999/xlink" x="0px" y="0px" viewBox="0 0 64 64"
	 style="enable-background:new 0 0 64 64;" xml:space="preserve">
<style type="text/css">
	.st0{fill:none;}
</style>
<title>sharebuttons</title>
<rect class="st0" width="64" height="64"/>
<g id="a9e89b74-cf75-4c16-b9a6-d9a56a0e9430">
	<path id="b38bb1d9-1634-4536-acbd-c76078abca2b" d="M44.9,25.4c0,0.3,0,0.6,0,0.9c0,8.8-6.7,18.8-18.8,18.8l0,0
		c-3.6,0-7.1-1-10.2-3c0.5,0.1,1.1,0.1,1.6,0.1c3,0,5.9-1,8.2-2.8c-2.8,0-5.3-1.9-6.2-4.6c1,0.2,2,0.2,3-0.1
		c-3.1-0.6-5.3-3.3-5.3-6.5v-0.1c0.9,0.5,1.9,0.8,3,0.8c-2.9-1.9-3.8-5.8-2-8.8c3.4,4.1,8.3,6.6,13.6,6.9c-0.8-3.6,1.4-7.1,5-7.9
		c2.3-0.5,4.7,0.2,6.3,1.9c1.5-0.3,2.9-0.8,4.2-1.6c-0.5,1.5-1.5,2.8-2.9,3.7c1.3-0.1,2.6-0.5,3.8-1C47.3,23.3,46.1,24.5,44.9,25.4z
		"/>
</g>
</svg>
